<svg width="332" height="332" viewBox="0 0 332 332" fill="none" xmlns="http://www.w3.org/2000/svg">
<path d="M100.259 87.6067C100.259 87.6067 135.859 114.622 189.98 64.1083C238.044 19.2483 277.289 90.0273 277.564 123.922C277.92 167.829 229.5 202.962 252.998 231.8C276.496 260.639 206.397 308.262 168.618 267.048C121.621 215.779 108.889 257.435 82.1017 257.435C62.8758 257.435 23.4032 209.663 50.0586 174.123C72.4888 144.216 60.2558 134.291 54.3318 123.922C45.7863 108.969 66.0803 68.3809 100.259 87.6067Z" fill="#545454"/>
<path d="M243.18 147.305C245.093 148.016 247.185 148.063 249.174 147.606C257.51 145.693 286.172 140.627 281.192 162.837C280.107 167.244 263.32 191.922 287.226 200.931C288.978 201.6 290.831 201.964 292.705 202.01C300.066 202.162 314.652 200.424 320.756 194.21C328.13 186.703 320.074 190.263 320.074 190.263C320.074 190.263 292.039 202.497 282.136 189.517C281.034 188.073 280.332 185.976 280.131 184.17C279.783 181.039 281.173 176.902 282.999 173.3C285.471 168.426 297.337 146.499 271.574 140.111C265.639 138.698 257.019 137.428 245.905 142.108C239.421 144.837 240.858 146.442 243.18 147.305Z" fill="#CDCDCD"/>
<path d="M248.918 139.118L241.456 141.911C238.88 142.875 237.573 145.744 238.537 148.32L238.907 149.309C239.871 151.884 242.741 153.191 245.317 152.227L252.779 149.434C255.354 148.47 256.661 145.601 255.697 143.025L255.327 142.036C254.363 139.461 251.493 138.154 248.918 139.118Z" fill="#4BFFB3"/>
<path d="M203.113 147.2L178.504 156.41C177.216 156.892 176.563 158.327 177.045 159.615L177.142 159.874C177.624 161.162 179.059 161.815 180.347 161.333L204.956 152.123C206.244 151.641 206.897 150.206 206.415 148.918L206.318 148.659C205.836 147.371 204.401 146.718 203.113 147.2Z" fill="white"/>
<path d="M209.982 165.55L185.373 174.76C184.085 175.242 183.431 176.677 183.913 177.965L184.01 178.224C184.492 179.512 185.927 180.165 187.215 179.683L211.825 170.473C213.112 169.991 213.766 168.556 213.284 167.268L213.187 167.009C212.705 165.721 211.27 165.068 209.982 165.55Z" fill="white"/>
<path d="M232.703 134.674L212.757 142.139C210.181 143.103 208.875 145.973 209.839 148.549L216.649 166.744C217.613 169.32 220.482 170.626 223.058 169.662L243.004 162.197C245.579 161.233 246.886 158.364 245.922 155.788L239.112 137.593C238.148 135.017 235.279 133.71 232.703 134.674Z" fill="#5895F9"/>
<path d="M214.818 139.45L194.872 146.915C192.296 147.879 190.99 150.748 191.954 153.324L200.078 175.031C201.042 177.607 203.912 178.914 206.488 177.95L226.433 170.485C229.009 169.521 230.316 166.651 229.352 164.076L221.227 142.368C220.263 139.792 217.394 138.486 214.818 139.45Z" fill="#699CFF"/>
<path d="M217.94 135.043L217.784 135.102C216.066 135.745 215.195 137.658 215.838 139.375L227.219 169.785C227.862 171.502 229.775 172.373 231.492 171.73L231.649 171.672C233.366 171.029 234.237 169.116 233.594 167.399L222.213 136.989C221.57 135.272 219.657 134.401 217.94 135.043Z" fill="#4BFFB3"/>
<path d="M14.5625 154.486C14.5625 154.486 54.6197 143.229 48.804 169.164C47.7941 173.268 33.256 194.398 50.5731 204.543C54.2915 206.722 58.5826 207.687 62.8918 207.664C70.6179 207.624 82.8662 206.137 88.3686 200.536C95.743 193.029 87.6867 196.589 87.6867 196.589C87.6867 196.589 64.6812 206.052 52.8458 198.509C48.8045 195.933 46.9727 190.946 48.0701 186.281C48.631 183.964 49.4852 181.728 50.6119 179.627C53.1859 174.806 64.9497 152.825 39.1865 146.437C33.2516 145.024 24.6318 143.754 13.5172 148.434C2.40269 153.114 14.5625 154.486 14.5625 154.486Z" fill="#CDCDCD"/>
<path d="M93.755 190.788L86.293 193.581C83.7171 194.545 82.4104 197.414 83.3745 199.99L83.7444 200.979C84.7084 203.554 87.5781 204.861 90.154 203.897L97.616 201.104C100.192 200.14 101.499 197.271 100.534 194.695L100.165 193.706C99.2005 191.13 96.3308 189.824 93.755 190.788Z" fill="#4BFFB3"/>
<path d="M106.362 178.51L95.3032 182.649C92.7273 183.613 91.4207 186.483 92.3847 189.059L97.7174 203.307C98.6814 205.883 101.551 207.19 104.127 206.225L115.186 202.086C117.762 201.122 119.069 198.253 118.105 195.677L112.772 181.428C111.808 178.853 108.938 177.546 106.362 178.51Z" fill="#5895F9"/>
<path d="M124.773 167.539L108.281 173.711C105.705 174.676 104.398 177.545 105.363 180.121L113.487 201.828C114.451 204.404 117.32 205.711 119.896 204.747L136.389 198.574C138.964 197.61 140.271 194.741 139.307 192.165L131.183 170.457C130.219 167.882 127.349 166.575 124.773 167.539Z" fill="#699CFF"/>
<path d="M128.266 163.043L128.11 163.102C126.393 163.745 125.522 165.658 126.164 167.375L137.545 197.785C138.188 199.502 140.101 200.373 141.818 199.73L141.975 199.672C143.692 199.029 144.563 197.116 143.921 195.399L132.539 164.989C131.897 163.272 129.984 162.401 128.266 163.043Z" fill="#4BFFB3"/>
<path d="M170.38 143.67C169.786 143.604 169.241 143.31 168.859 142.85C168.478 142.39 168.289 141.8 168.334 141.204L169.564 118.728C169.637 117.385 170.771 116.365 172.058 116.484L173.851 116.65C175.137 116.769 176.059 117.978 175.879 119.311L172.855 141.622C172.785 142.216 172.489 142.76 172.028 143.142C171.567 143.523 170.977 143.712 170.38 143.67V143.67Z" fill="#4BFFB3"/>
<path d="M159.755 145.608C159.57 145.662 159.376 145.68 159.185 145.659C158.993 145.639 158.808 145.581 158.639 145.488C158.47 145.396 158.321 145.271 158.2 145.122C158.079 144.972 157.989 144.799 157.935 144.615L153.54 130.633C153.413 130.236 153.448 129.803 153.638 129.432C153.829 129.06 154.159 128.779 154.556 128.65L155.694 128.307C155.889 128.25 156.094 128.234 156.296 128.26C156.497 128.287 156.691 128.354 156.865 128.459C157.04 128.564 157.19 128.704 157.307 128.87C157.425 129.036 157.506 129.225 157.547 129.424L160.804 143.749C160.895 144.134 160.837 144.539 160.643 144.884C160.448 145.228 160.131 145.487 159.755 145.608V145.608Z" fill="#4BFFB3"/>
<path d="M153.825 153.669C153.038 154.645 151.454 154.633 150.235 153.643L128.594 136.06C127.301 135.009 126.92 133.271 127.755 132.237L128.919 130.794C129.755 129.76 131.47 129.845 132.693 130.981L153.171 150.006C154.324 151.078 154.612 152.693 153.825 153.669Z" fill="#4BFFB3"/>
<path d="M163.829 199.087C164.386 199.302 164.838 199.725 165.09 200.267C165.342 200.809 165.373 201.428 165.178 201.993L158.248 223.409C157.834 224.688 156.477 225.384 155.264 224.942L153.572 224.324C152.358 223.88 151.776 222.475 152.291 221.233L160.912 200.435C161.131 199.878 161.557 199.426 162.1 199.175C162.643 198.924 163.263 198.892 163.829 199.087V199.087Z" fill="#4BFFB3"/>
<path d="M174.597 199.926C174.789 199.921 174.981 199.954 175.161 200.022C175.341 200.091 175.505 200.195 175.645 200.327C175.785 200.459 175.897 200.618 175.976 200.794C176.054 200.97 176.098 201.159 176.103 201.352L176.781 215.992C176.803 216.409 176.658 216.818 176.379 217.129C176.1 217.439 175.709 217.627 175.292 217.65L174.104 217.691C173.901 217.696 173.699 217.659 173.511 217.582C173.322 217.506 173.152 217.39 173.011 217.245C172.869 217.099 172.759 216.925 172.688 216.734C172.617 216.544 172.586 216.34 172.598 216.137L173.108 201.456C173.118 201.06 173.278 200.684 173.553 200.4C173.829 200.117 174.202 199.948 174.597 199.926V199.926Z" fill="#4BFFB3"/>
<path d="M182.389 193.645C183.4 192.903 184.927 193.318 185.853 194.587L202.286 217.113C203.268 218.459 203.193 220.237 202.12 221.024L200.626 222.121C199.555 222.908 197.918 222.388 197.025 220.977L182.085 197.352C181.245 196.023 181.379 194.387 182.389 193.645Z" fill="#4BFFB3"/>
</svg>
